<?xml version="1.0" encoding="UTF-8" standalone="no"?>
<!-- Created with Inkscape (http://www.inkscape.org/) -->

<svg
   width="210mm"
   height="297mm"
   viewBox="0 0 210 297"
   version="1.1"
   id="svg1"
   sodipodi:docname="target_truck.svg"
   inkscape:export-filename="npc_car.svg"
   inkscape:export-xdpi="96"
   inkscape:export-ydpi="96"
   xmlns:inkscape="http://www.inkscape.org/namespaces/inkscape"
   xmlns:sodipodi="http://sodipodi.sourceforge.net/DTD/sodipodi-0.dtd"
   xmlns="http://www.w3.org/2000/svg"
   xmlns:svg="http://www.w3.org/2000/svg">
  <sodipodi:namedview
     id="namedview1"
     pagecolor="#505050"
     bordercolor="#eeeeee"
     borderopacity="1"
     inkscape:showpageshadow="0"
     inkscape:pageopacity="0"
     inkscape:pagecheckerboard="0"
     inkscape:deskcolor="#505050"
     inkscape:document-units="mm">
    <inkscape:page
       x="0"
       y="0"
       width="210"
       height="297"
       id="page2"
       margin="0"
       bleed="0" />
  </sodipodi:namedview>
  <defs
     id="defs1" />
  <rect
     style="fill:#d40000;stroke:#000000;stroke-width:0;stroke-dasharray:none"
     id="rect3"
     width="100.11236"
     height="122.04173"
     x="49.579449"
     y="49.579453"
     ry="27.669073" />
  <rect
     style="fill:#d40000;stroke:#000000;stroke-width:0;stroke-dasharray:none"
     id="rect2"
     width="100.11236"
     height="102.01926"
     x="121.70317"
     y="132.44002"
     ry="9.4611416"
     transform="rotate(24.645697)" />
  <g
     inkscape:label="Layer 1"
     inkscape:groupmode="layer"
     id="layer1">
    <path
       style="fill:#0000ff;stroke-width:0.264583"
       d="m 74.845906,96.298556 c 2.197907,-3.275812 50.383654,-3.780807 53.405234,0.04936 3.02158,3.830184 19.68986,26.136744 13.33634,26.170534 -6.35352,0.0338 -70.956705,-0.30438 -77.58708,-0.23836 -6.630375,0.066 8.647599,-22.705727 10.845506,-25.981539 z"
       id="path3"
       sodipodi:nodetypes="zzzzz" />
    <path
       style="fill:#4d4d4d;stroke-width:0.234555"
       d="m 93.30804,277.78645 c -2.49005,0.90844 -48.047041,-19.80975 -49.298756,-22.87419 -1.173998,-2.87417 -10.382387,-26.93331 -3.130457,-23.66141 4.627681,2.08787 67.620143,31.57565 70.402503,32.90173 6.78824,3.23524 -15.38925,12.69114 -17.97329,13.63387 z"
       id="path11"
       sodipodi:nodetypes="sssss" />
    <rect
       style="fill:#d4aa00;stroke-width:0.145063"
       id="rect12"
       width="16.726877"
       height="9.2718258"
       x="-0.89244258"
       y="86.012543"
       ry="4.6004062"
       transform="matrix(0.81323499,-0.58193543,0.67299985,0.73964262,0,0)" />
    <rect
       style="fill:#d4aa00;stroke-width:0.150671"
       id="rect13"
       width="17.492781"
       height="9.5646114"
       x="-150.30457"
       y="-27.431671"
       ry="4.7456775"
       transform="matrix(-0.83087707,-0.55645601,-0.69707194,0.71700119,0,0)" />
    <path
       style="fill:#000000;stroke:#000000;stroke-width:0;stroke-dasharray:none"
       d="m 58.160512,167.80738 c 0.95345,0.31781 1.913877,0.61542 2.860352,0.95345 2.294133,0.81933 5.124312,2.54744 7.627609,2.86035 0.946087,0.11826 1.935369,-0.23125 2.860352,0 3.043939,0.76098 6.305442,1.54812 9.534509,1.9069 0.858931,0.0954 3.042748,0.21971 3.813805,0.47673 0.543552,0.18118 0.90355,0.72775 1.430176,0.95345 2.126562,0.91138 1.636848,0.2046 3.813805,0.47673 2.692461,0.33655 5.812446,0.93815 8.581059,0.47672 0.495676,-0.0826 0.932714,-0.40566 1.430181,-0.47672 0.62924,-0.0899 1.2864,0.13788 1.9069,0 2.54063,-0.56459 5.02053,-1.94912 7.62761,-2.38363 3.71072,-0.61846 7.73068,0.61845 11.44141,0 0.99135,-0.16523 1.87484,-0.75635 2.86035,-0.95345 0.92623,-0.18525 2.50225,0.41741 3.33708,0 0.20101,-0.10051 0.26353,-0.40566 0.47672,-0.47673 0.9748,-0.32493 9.45658,-0.3438 10.48797,0 0.55222,0.18408 5.58403,2.92706 5.7207,3.33708 0.10051,0.30151 -0.0771,0.64512 0,0.95345 0.0702,0.28092 1.86699,4.25062 1.9069,4.29053 0.11237,0.11237 0.36436,-0.11237 0.47673,0 0.11039,0.11039 0.90064,1.74848 0.95345,1.9069 0.1005,0.30151 -0.14213,0.66919 0,0.95345 0.86834,1.73668 2.88807,1.92538 4.29053,2.86036 0.73276,0.4885 1.20147,1.37783 1.9069,1.9069 2.39721,1.7979 5.19407,3.02901 7.62761,4.76725 1.20368,0.85978 2.17428,1.93012 3.33708,2.86036 1.13286,0.90628 2.65612,1.45748 3.8138,2.38362 1.31385,1.05108 2.50153,2.28726 3.81381,3.33708 0.55493,0.44395 1.40439,0.45094 1.9069,0.95345 0.11236,0.11237 -0.0711,0.3346 0,0.47673 0.32397,0.64794 1.1062,1.25895 1.43018,1.9069 1.17617,2.35234 2.38362,5.41924 2.38362,8.10433 0,0.71971 0.2011,4.56616 0,4.76726 -0.24731,0.24731 -8.39288,0 -9.05778,0 -1.29993,0 -3.50726,0.42 -4.76726,0 -1.62811,-0.5427 -3.19145,-2.54918 -4.76725,-3.33708 -0.44946,-0.22473 -1.01206,-0.19798 -1.43018,-0.47673 -1.8792,-1.25279 -3.36478,-3.03773 -5.24398,-4.29052 -1.9381,-1.29208 -3.85596,-2.41525 -5.7207,-3.81381 -1.04653,-0.78489 -2.21541,-1.14976 -3.33708,-1.43018 -2.30208,-0.57551 0.0236,-0.22654 -1.43018,-0.95344 -1.71042,-0.85521 -3.75315,-2.07334 -5.72071,-2.86036 -1.72801,-0.69121 -3.53404,-1.17407 -5.24398,-1.9069 -2.69207,-1.15375 -4.95822,-3.04482 -7.62761,-4.29053 -1.77624,-0.82892 -4.70229,-1.89066 -6.67415,-2.38363 -3.33693,-0.83423 -7.14956,-1.27082 -10.48796,-2.38362 -0.67419,-0.22474 -1.24149,-0.70393 -1.9069,-0.95346 -1.46725,-0.55021 -2.7803,-0.50038 -4.29053,-0.95345 -2.125347,-0.6376 -4.119689,-1.69104 -6.197435,-2.38363 -0.829223,-0.2764 -3.373956,-0.54608 -4.290531,-0.95345 -0.846725,-0.37632 -1.528316,-1.07379 -2.383626,-1.43017 -3.80129,-1.58387 -2.423226,-0.44094 -5.720707,-1.43018 -0.819658,-0.2459 -1.565722,-0.70179 -2.383629,-0.95345 -3.021758,-0.92977 -6.038344,-1.56014 -9.057783,-2.38363 -8.565507,-2.33604 2.713906,0.12637 -4.290531,-1.43017 -1.096893,-0.24376 -2.246973,-0.20421 -3.337078,-0.47673 -1.128302,-0.28208 -2.228874,-1.06077 -3.337078,-1.43018 -0.301506,-0.1005 -0.669187,0.14214 -0.95345,0 -0.630124,-0.31506 -2.802094,-2.66753 -2.383629,-3.33708 0.724501,-1.15919 1.589085,-2.22471 2.383629,-3.33707 z"
       id="path4" />
    <path
       style="fill:#000000;stroke:#000000;stroke-width:0;stroke-dasharray:none"
       d="M 65.311395,184.96949 136.82022,215.0032"
       id="path5" />
  </g>
</svg>
