<?xml version="1.0" encoding="UTF-8" standalone="no"?>
<!-- Created with Inkscape (http://www.inkscape.org/) -->

<svg
   width="210mm"
   height="297mm"
   viewBox="0 0 210 297"
   version="1.1"
   id="svg1"
   inkscape:export-filename="oil_spill_1.svg"
   inkscape:export-xdpi="96"
   inkscape:export-ydpi="96"
   xmlns:inkscape="http://www.inkscape.org/namespaces/inkscape"
   xmlns:sodipodi="http://sodipodi.sourceforge.net/DTD/sodipodi-0.dtd"
   xmlns="http://www.w3.org/2000/svg"
   xmlns:svg="http://www.w3.org/2000/svg">
  <sodipodi:namedview
     id="namedview1"
     pagecolor="#505050"
     bordercolor="#eeeeee"
     borderopacity="1"
     inkscape:showpageshadow="0"
     inkscape:pageopacity="0"
     inkscape:pagecheckerboard="0"
     inkscape:deskcolor="#505050"
     inkscape:document-units="mm">
    <inkscape:page
       x="0"
       y="0"
       width="210"
       height="297"
       id="page2"
       margin="0"
       bleed="0" />
  </sodipodi:namedview>
  <defs
     id="defs1" />
  <g
     inkscape:label="Layer 1"
     inkscape:groupmode="layer"
     id="layer1">
    <path
       style="fill:#000000;stroke:#ffffff;stroke-width:1.065;stroke-dasharray:none;stroke-opacity:1"
       d="m 132.05297,95.583467 c 0.52895,3.613666 -2.54253,-10.408507 -4.76726,-8.819423 -0.95345,1.112359 -1.99396,2.155643 -2.86035,3.337079 -2.88855,3.938936 -4.77896,8.659193 -8.58106,11.918137 -0.97273,0.83377 -2.26145,1.21091 -3.33708,1.9069 -3.00731,1.94591 -10.79176,6.25666 -11.91814,10.01124 -1.009966,3.36657 2.29795,5.40259 3.33708,8.10433 1.10653,2.87699 0.96616,13.02654 -0.47672,15.73194 -3.890347,7.2944 -12.112044,0.98577 -17.638848,1.90691 -1.532676,0.25544 -6.488925,6.0122 -7.150881,6.67415 -3.178172,3.17817 -6.609458,6.12195 -9.534511,9.53451 -1.262357,1.47275 -2.173243,3.21548 -3.337079,4.76726 -1.711394,2.28186 -4.310954,4.3518 -5.243981,7.15088 -2.488491,7.46547 -0.159072,11.35635 3.337079,18.11557 6.841302,13.22652 12.030448,19.92977 22.882825,30.03371 2.221987,2.06875 4.303485,4.30089 6.674157,6.19743 0.832398,0.66592 1.961018,0.85787 2.860352,1.43018 2.226284,1.41672 4.686387,3.50468 6.674157,5.24398 1.61213,1.41061 2.84126,3.23998 4.76726,4.29053 1.99741,1.08949 4.13566,1.89819 6.19743,2.86035 2.94221,1.37303 4.55837,2.34537 7.62761,1.9069 1.84102,-0.263 3.4314,-1.94195 4.76725,-2.86035 1.41641,-0.97378 3.00957,-1.71423 4.29053,-2.86035 3.52104,-3.1504 6.37386,-6.97613 9.53451,-10.48797 1.5441,-1.71566 7.08439,-9.02453 9.05779,-10.01123 0.7771,-0.38855 4.24338,0.74564 4.76725,-0.47673 2.05878,-4.80382 4.44162,-10.26677 5.72071,-15.25521 0.88255,-3.44196 2.39001,6.41431 5.00562,8.81942 8.43877,7.75964 3.37204,-13.94273 8.81941,-0.47673 2.54554,6.29259 4.48941,6.86079 5.24399,7.38925 0.9053,0.45265 4.16075,-0.19369 4.76725,-0.47673 1.67932,-0.78368 3.54693,-1.46569 4.76726,-2.86035 1.12703,-1.28803 1.34151,-3.15185 1.9069,-4.76726 2.11327,-6.03791 1.9069,-11.83609 1.9069,-18.11556 0,-1.27127 0.24932,-2.56723 0,-3.81381 -0.38874,-1.94369 -1.4605,-4.00633 -2.38363,-5.72071 -3.15716,-5.86331 -7.78015,-10.84707 -10.96468,-16.68539 -1.1561,-2.11951 -1.6772,-4.54447 -2.86036,-6.67415 -5.07251,-9.13054 -10.60241,-17.78515 -14.30176,-27.65008 -1.37268,-3.6605 -3.06601,-9.11081 -3.8138,-13.34832 -0.45337,-2.56909 -0.70148,-5.86146 -2.38363,-8.10433 -0.47673,-0.63564 -1.28647,-0.93383 -1.9069,-1.43018 -1.81547,-1.45237 -3.35204,-3.415866 -5.24399,-4.767254 -0.57828,-0.413063 -1.31559,-0.559248 -1.9069,-0.953453 -0.37397,-0.249314 -0.56804,-0.722204 -0.95345,-0.95345 -1.1093,-0.66558 -2.68992,-0.787961 -3.8138,-1.430176 -2.28587,-1.306208 -2.58427,-5.084086 -4.11454,-7.124447 -0.2132,-0.284263 -9.73708,-5.542516 -6.79728,-0.616354 z"
       id="path1"
       sodipodi:nodetypes="scssssssssssssssssssssssssssssssssssssssssssssscs" />
  </g>
</svg>
