<?xml version="1.0" encoding="UTF-8" standalone="no"?>
<!-- Created with Inkscape (http://www.inkscape.org/) -->

<svg
   width="210mm"
   height="297mm"
   viewBox="0 0 210 297"
   version="1.1"
   id="svg1"
   xmlns:inkscape="http://www.inkscape.org/namespaces/inkscape"
   xmlns:sodipodi="http://sodipodi.sourceforge.net/DTD/sodipodi-0.dtd"
   xmlns="http://www.w3.org/2000/svg"
   xmlns:svg="http://www.w3.org/2000/svg">
  <sodipodi:namedview
     id="namedview1"
     pagecolor="#505050"
     bordercolor="#eeeeee"
     borderopacity="1"
     inkscape:showpageshadow="0"
     inkscape:pageopacity="0"
     inkscape:pagecheckerboard="0"
     inkscape:deskcolor="#505050"
     inkscape:document-units="mm">
    <inkscape:page
       x="0"
       y="0"
       width="210"
       height="297"
       id="page2"
       margin="0"
       bleed="0" />
  </sodipodi:namedview>
  <defs
     id="defs1" />
  <g
     inkscape:label="Layer 1"
     inkscape:groupmode="layer"
     id="layer1">
    <path
       style="fill:#000000;stroke:#ffffff;stroke-width:1.065;stroke-dasharray:none;stroke-opacity:1"
       d="m 129.07343,72.223916 c -2.17765,-2.498646 -2.0431,-1.557868 -5.1248,-3.098716 -0.89892,-0.449461 -1.94783,-0.532287 -2.86035,-0.95345 -1.16324,-0.536882 -2.14755,-1.431092 -3.33708,-1.906903 -1.21667,-0.486669 -2.54765,-0.615812 -3.8138,-0.953452 -2.23562,-0.596165 -4.40535,-1.453139 -6.67416,-1.906902 -5.67495,-1.134991 -1.85164,-0.07485 -6.67416,-0.476724 -6.551209,-0.545936 -8.25584,-1.11606 -14.301762,1.906902 -1.85297,0.926484 -5.258829,2.516418 -6.674157,3.813802 -1.399447,1.282827 -1.953622,3.180477 -2.860352,4.767257 -4.074933,7.13113 -2.860355,19.428399 -2.860355,27.65008 0,9.31485 0.547071,18.8266 0,28.1268 -0.07523,1.27895 -0.401492,2.53486 -0.476724,3.81381 -0.301217,5.12066 -0.335772,9.27414 -1.906902,14.30176 -0.635918,2.03494 -1.715746,3.92204 -2.860355,5.72071 -0.361955,0.56879 -1.043551,0.87786 -1.430176,1.43018 -0.734697,1.04957 -1.125765,2.3216 -1.906902,3.33708 -1.470245,1.91131 -4.472586,4.13959 -6.197431,5.7207 -0.828304,0.75928 -1.492993,1.69853 -2.383628,2.38363 -3.197863,2.45989 -7.215256,4.27862 -10.964685,5.72071 -0.938038,0.36078 -1.961433,0.50398 -2.860355,0.95345 -1.02493,0.51246 -1.819918,1.4267 -2.860352,1.9069 -1.050394,0.48479 -2.269199,0.5085 -3.337079,0.95345 -5.644531,2.35189 -15.579912,10.52923 -16.685393,17.16212 -0.182871,1.09722 0,2.22472 0,3.33708 0,7.81799 3.762967,11.96719 7.627608,18.59229 1.653865,2.8352 2.856531,5.24016 5.243981,7.62761 3.386492,3.38649 3.388381,2.75032 7.627609,5.24398 1.292159,0.76009 2.472931,1.71319 3.813802,2.38363 4.554717,2.27736 13.187428,3.42325 18.115571,1.9069 5.214776,-1.60455 11.227861,-6.34556 14.778489,-10.48796 1.547958,-1.80595 2.742576,-3.91476 4.290531,-5.72071 1.676429,-1.95583 3.712639,-4.11425 5.720707,-5.7207 0.8948,-0.71584 1.96555,-1.19106 2.860353,-1.90691 2.141476,-1.71318 3.082483,-2.75851 5.720707,-3.8138 2.521211,-1.00849 5.01666,-2.11437 7.62761,-2.86035 0.76397,-0.21828 1.59063,0.0496 2.38362,0 1.75179,-0.10949 3.49952,-0.2829 5.24399,-0.47673 4.02855,-0.44761 7.93256,-1.2776 11.91813,-1.9069 5.42756,-0.85698 11.44736,-0.41936 16.6854,-2.38363 1.13315,-0.42493 2.29933,-0.80753 3.33707,-1.43018 1.7343,-1.04057 2.93667,-3.37523 4.76726,-4.29052 0.28426,-0.14213 0.63563,0 0.95345,0 8.67832,0 14.82143,9.53747 20.4992,14.77849 1.44553,1.33433 4.2137,4.15723 6.67415,3.33707 2.34304,-0.781 2.40066,-4.20541 2.86036,-6.19743 0.65886,-2.85509 1.1612,-5.7474 1.9069,-8.58106 0.38366,-1.4579 1.15567,-2.80819 1.43018,-4.29053 0.52404,-2.82984 0.59648,-5.72532 0.95345,-8.58106 0.66928,-5.35424 2.43798,-12.60434 -0.47673,-17.63884 -3.56016,-6.14937 -5.69108,-9.02816 -10.48796,-13.82504 -0.95345,-0.95345 -1.85811,-1.95833 -2.86035,-2.86035 -0.85175,-0.76657 -2.05008,-1.09663 -2.86035,-1.9069 -0.11237,-0.11237 0.32341,0.0418 0.47672,0 5.04371,-1.37556 9.86495,-3.03307 14.77849,-4.76726 1.76298,-0.62223 3.6496,-0.46083 4.29053,-2.38363 1.12291,-3.36874 0.25497,-4.88189 -0.95345,-8.10433 -0.52933,-1.41155 -0.84517,-2.90113 -1.43018,-4.29053 -3.40171,-8.07907 -9.99788,-19.05566 -16.20867,-25.26645 -1.19445,-1.194461 -2.72266,-2.047552 -3.8138,-3.337081 -0.68857,-0.813763 -0.77572,-2.018911 -1.43018,-2.860352 -0.4878,-0.627173 -1.29651,-0.921522 -1.9069,-1.430176 -2.04408,-1.703403 -3.83704,-3.837046 -5.7207,-5.720707 -9.05782,-9.057814 -11.53266,-14.301766 -25.26646,-14.301766"
       id="path1"
       sodipodi:nodetypes="cssssssssssssssssssssssssssssssssssscsssssssssssssssscsssssssssc" />
  </g>
</svg>
