<?xml version="1.0" encoding="UTF-8" standalone="no"?>
<!-- Created with Inkscape (http://www.inkscape.org/) -->

<svg
   width="210mm"
   height="297mm"
   viewBox="0 0 210 297"
   version="1.1"
   id="svg1"
   inkscape:export-filename="oil_spill_2.svg"
   inkscape:export-xdpi="96"
   inkscape:export-ydpi="96"
   xmlns:inkscape="http://www.inkscape.org/namespaces/inkscape"
   xmlns:sodipodi="http://sodipodi.sourceforge.net/DTD/sodipodi-0.dtd"
   xmlns="http://www.w3.org/2000/svg"
   xmlns:svg="http://www.w3.org/2000/svg">
  <sodipodi:namedview
     id="namedview1"
     pagecolor="#505050"
     bordercolor="#eeeeee"
     borderopacity="1"
     inkscape:showpageshadow="0"
     inkscape:pageopacity="0"
     inkscape:pagecheckerboard="0"
     inkscape:deskcolor="#505050"
     inkscape:document-units="mm">
    <inkscape:page
       x="0"
       y="0"
       width="210"
       height="297"
       id="page2"
       margin="0"
       bleed="0" />
  </sodipodi:namedview>
  <defs
     id="defs1" />
  <g
     inkscape:label="Layer 1"
     inkscape:groupmode="layer"
     id="layer1">
    <path
       style="fill:#000000;stroke:#ffffff;stroke-width:1.065;stroke-dasharray:none;stroke-opacity:1"
       d="m 188.7833,167.33065 c -3.20684,-0.8017 -2.09999,-0.0991 -4.76725,-4.29052 -3.98657,-6.26461 -5.96844,-13.09287 -9.53451,-19.54575 -3.34468,-6.05228 -7.80742,-13.20703 -12.39487,-18.59229 -1.60303,-1.88182 -3.62188,-3.37857 -5.24398,-5.24399 -1.56408,-1.79869 -2.70114,-3.94432 -4.29052,-5.7207 -4.63006,-5.17477 -11.29609,-8.49806 -17.63885,-10.96469 -1.2654,-0.4921 -2.48246,-1.1639 -3.8138,-1.43018 -1.09076,-0.21815 -2.22719,0.074 -3.33708,0 -4.33345,-0.28889 -8.50622,-0.47672 -12.87159,-0.47672 -6.5378,0 -11.37186,0.42519 -17.638844,2.38363 -1.104212,0.34506 -2.288741,0.46422 -3.337079,0.95345 -1.358495,0.63396 -2.472933,1.71319 -3.813804,2.38362 -5.453997,2.727 -0.195932,-1.11724 -6.197431,2.38363 -0.878906,0.5127 -1.504725,1.39421 -2.383629,1.90691 -1.954416,1.14007 -4.464613,1.83124 -6.674156,2.38362 -2.911417,0.72786 -10.186988,-6.02188 -12.394864,-7.62761 -1.316927,-0.95776 -2.840363,-1.65854 -4.290531,-2.38362 -0.726308,-0.36316 -1.490509,-1.25116 -2.383626,-0.95345 -3.468778,1.15625 -6.520135,3.80246 -9.534512,5.7207 -0.899334,0.57231 -1.973395,0.83887 -2.860352,1.43018 -2.80997,1.87331 -2.519415,2.29245 -4.767254,4.29053 -4.008364,3.56299 -7.608851,7.31156 -10.487962,11.91814 -1.319945,2.11191 -0.58696,1.70189 -1.906903,3.8138 -0.421106,0.67377 -1.101392,1.18358 -1.430176,1.9069 -0.831765,1.82988 -1.115104,3.87318 -1.906902,5.72071 -2.26639,5.28824 -3.60421,10.25781 -2.860353,16.20867 0.359677,2.87741 0.659033,5.78566 1.430176,8.58105 1.103251,3.99929 3.959293,8.14369 5.720706,11.91814 1.023561,2.19335 1.659487,4.57264 2.860354,6.67416 3.666953,6.41717 8.50926,8.50386 15.255216,10.48796 1.446282,0.42538 2.812267,1.13453 4.290529,1.43018 3.606514,0.7213 10.149755,0.47673 13.348316,0.47673 4.608346,0 9.220374,0.18418 13.82504,0 2.228604,-0.0891 4.471061,-0.12888 6.674157,-0.47673 1.51375,-0.23902 3.537196,-1.99911 5.24398,-1.43018 1.403446,0.46782 -0.367347,10.71497 -0.476726,11.91814 -0.582229,6.4045 -2.408949,13.97015 0.953453,20.02247 0.942012,1.69563 2.26111,3.15331 3.337078,4.76726 1.271267,1.9069 2.193248,4.10015 3.813802,5.7207 1.465064,1.46507 3.498869,2.22021 5.243977,3.33708 9.86279,6.31218 3.35484,2.68383 14.30177,7.62761 2.79646,1.26291 8.55099,4.18067 11.91814,5.24398 3.27113,1.03299 6.61535,1.8985 10.01123,2.38363 1.41581,0.20225 2.86233,-0.0752 4.29053,0 4.32835,0.22781 9.00343,1.09742 13.34832,0.47672 2.09879,-0.29983 4.11477,-1.03348 6.19743,-1.43017 1.25853,-0.23972 2.58194,-0.12477 3.8138,-0.47673 2.73474,-0.78135 9.50499,-7.42933 11.44142,-10.01123 0.89948,-1.19932 1.46958,-2.62555 2.38362,-3.81381 0.68511,-0.89063 1.58909,-1.58908 2.38363,-2.38363 0.63564,-1.11236 1.13821,-2.31215 1.9069,-3.33708 0.6742,-0.89892 1.76034,-1.44869 2.38363,-2.38362 1.23026,-1.84539 4.62346,-9.91276 5.24398,-12.39487 0.90251,-3.61002 1.48973,-7.6875 0.95345,-11.44141 -0.54487,-3.8141 -1.55566,-7.57774 -1.9069,-11.44141 -0.0963,-1.05939 0.14446,-3.97271 0,-4.76726 -0.15308,-0.84194 -0.80037,-1.54168 -0.95345,-2.38362 -0.34112,-1.87615 0,-3.81381 0,-5.72071 0,-4.49215 0.15876,-8.89991 -0.47673,-13.34832 z"
       id="path1" />
  </g>
</svg>
